<svg width="10" height="10" viewBox="0 0 10 10" fill="none" xmlns="http://www.w3.org/2000/svg">
<path d="M2.5 5.75C2.70833 5.75 2.88542 5.67708 3.03125 5.53125C3.17708 5.38542 3.25 5.20833 3.25 5C3.25 4.79167 3.17708 4.61458 3.03125 4.46875C2.88542 4.32292 2.70833 4.25 2.5 4.25C2.29167 4.25 2.11458 4.32292 1.96875 4.46875C1.82292 4.61458 1.75 4.79167 1.75 5C1.75 5.20833 1.82292 5.38542 1.96875 5.53125C2.11458 5.67708 2.29167 5.75 2.5 5.75ZM5 5.75C5.20833 5.75 5.38542 5.67708 5.53125 5.53125C5.67708 5.38542 5.75 5.20833 5.75 5C5.75 4.79167 5.67708 4.61458 5.53125 4.46875C5.38542 4.32292 5.20833 4.25 5 4.25C4.79167 4.25 4.61458 4.32292 4.46875 4.46875C4.32292 4.61458 4.25 4.79167 4.25 5C4.25 5.20833 4.32292 5.38542 4.46875 5.53125C4.61458 5.67708 4.79167 5.75 5 5.75ZM7.5 5.75C7.70833 5.75 7.88542 5.67708 8.03125 5.53125C8.17708 5.38542 8.25 5.20833 8.25 5C8.25 4.79167 8.17708 4.61458 8.03125 4.46875C7.88542 4.32292 7.70833 4.25 7.5 4.25C7.29167 4.25 7.11458 4.32292 6.96875 4.46875C6.82292 4.61458 6.75 4.79167 6.75 5C6.75 5.20833 6.82292 5.38542 6.96875 5.53125C7.11458 5.67708 7.29167 5.75 7.5 5.75ZM5 10C4.30833 10 3.65833 9.86875 3.05 9.60625C2.44167 9.34375 1.9125 8.9875 1.4625 8.5375C1.0125 8.0875 0.65625 7.55833 0.39375 6.95C0.13125 6.34167 0 5.69167 0 5C0 4.30833 0.13125 3.65833 0.39375 3.05C0.65625 2.44167 1.0125 1.9125 1.4625 1.4625C1.9125 1.0125 2.44167 0.65625 3.05 0.39375C3.65833 0.13125 4.30833 0 5 0C5.69167 0 6.34167 0.13125 6.95 0.39375C7.55833 0.65625 8.0875 1.0125 8.5375 1.4625C8.9875 1.9125 9.34375 2.44167 9.60625 3.05C9.86875 3.65833 10 4.30833 10 5C10 5.69167 9.86875 6.34167 9.60625 6.95C9.34375 7.55833 8.9875 8.0875 8.5375 8.5375C8.0875 8.9875 7.55833 9.34375 6.95 9.60625C6.34167 9.86875 5.69167 10 5 10ZM5 9C6.11667 9 7.0625 8.6125 7.8375 7.8375C8.6125 7.0625 9 6.11667 9 5C9 3.88333 8.6125 2.9375 7.8375 2.1625C7.0625 1.3875 6.11667 1 5 1C3.88333 1 2.9375 1.3875 2.1625 2.1625C1.3875 2.9375 1 3.88333 1 5C1 6.11667 1.3875 7.0625 2.1625 7.8375C2.9375 8.6125 3.88333 9 5 9Z" fill="#FFF"/>
</svg>
