<svg width="12" height="12" viewBox="0 0 12 12" fill="none" xmlns="http://www.w3.org/2000/svg">
<path d="M2 11C2 9.93913 2.42143 8.92172 3.17157 8.17157C3.92172 7.42143 4.93913 7 6 7C7.06087 7 8.07828 7.42143 8.82843 8.17157C9.57857 8.92172 10 9.93913 10 11H9C9 10.2044 8.68393 9.44129 8.12132 8.87868C7.55871 8.31607 6.79565 8 6 8C5.20435 8 4.44129 8.31607 3.87868 8.87868C3.31607 9.44129 3 10.2044 3 11H2ZM6 6.5C4.3425 6.5 3 5.1575 3 3.5C3 1.8425 4.3425 0.5 6 0.5C7.6575 0.5 9 1.8425 9 3.5C9 5.1575 7.6575 6.5 6 6.5ZM6 5.5C7.105 5.5 8 4.605 8 3.5C8 2.395 7.105 1.5 6 1.5C4.895 1.5 4 2.395 4 3.5C4 4.605 4.895 5.5 6 5.5Z" fill="#fff"/>
</svg>
