<svg width="12" height="12" viewBox="0 0 12 12" fill="none" xmlns="http://www.w3.org/2000/svg">
<path d="M6 7V8C5.20435 8 4.44129 8.31607 3.87868 8.87868C3.31607 9.44129 3 10.2044 3 11H2C2 9.93913 2.42143 8.92172 3.17157 8.17157C3.92172 7.42143 4.93913 7 6 7ZM6 6.5C4.3425 6.5 3 5.1575 3 3.5C3 1.8425 4.3425 0.5 6 0.5C7.6575 0.5 9 1.8425 9 3.5C9 5.1575 7.6575 6.5 6 6.5ZM6 5.5C7.105 5.5 8 4.605 8 3.5C8 2.395 7.105 1.5 6 1.5C4.895 1.5 4 2.395 4 3.5C4 4.605 4.895 5.5 6 5.5ZM10.5 8.5H11V11H7V8.5H7.5V8C7.5 7.60218 7.65804 7.22064 7.93934 6.93934C8.22064 6.65804 8.60218 6.5 9 6.5C9.39782 6.5 9.77936 6.65804 10.0607 6.93934C10.342 7.22064 10.5 7.60218 10.5 8V8.5ZM9.5 8.5V8C9.5 7.86739 9.44732 7.74021 9.35355 7.64645C9.25979 7.55268 9.13261 7.5 9 7.5C8.86739 7.5 8.74021 7.55268 8.64645 7.64645C8.55268 7.74021 8.5 7.86739 8.5 8V8.5H9.5Z" fill="#fff"/>
</svg>
