<svg xmlns="http://www.w3.org/2000/svg" width="256" height="315" preserveAspectRatio="xMidYMid"><path d="M213.803 167.031c.442 47.579 41.739 63.412 42.197 63.614-.349 1.117-6.599 22.564-21.757 44.717-13.104 19.153-26.704 38.235-48.129 38.63-21.052.388-27.821-12.484-51.889-12.484-24.061 0-31.582 12.088-51.51 12.872-20.68.783-36.428-20.711-49.641-39.793-26.999-39.034-47.632-110.3-19.927-158.406 13.763-23.89 38.359-39.017 65.055-39.405 20.307-.387 39.475 13.662 51.889 13.662 12.406 0 35.699-16.896 60.186-14.414 10.251.427 39.026 4.141 57.503 31.187-1.489.923-34.334 20.044-33.977 59.822M174.239 50.199C185.218 36.909 192.608 18.408 190.592 0c-15.826.636-34.962 10.546-46.314 23.828C134.105 35.59 125.196 54.417 127.6 72.46c17.64 1.365 35.66-8.964 46.639-22.262"/></svg>