<svg xmlns="http://www.w3.org/2000/svg" width="28" height="28" fill="#fff" xmlns:v="https://vecta.io/nano"><path d="M12.833 9.333h2.333V10.5h-2.333V9.333zm0-4.667h2.333v1.167h-2.333V4.667zm0 7h2.333v1.167h-2.333v-1.167zM24.5 14v-3.5a15.31 15.31 0 0 0-9.746 3.5h-1.507A15.31 15.31 0 0 0 3.5 10.5V14c-.309 0-.606.123-.825.342s-.342.516-.342.825V17.5c0 .309.123.606.342.825s.516.342.825.342v4.667A15.34 15.34 0 0 1 14 27.476a15.4 15.4 0 0 1 10.5-4.142v-4.667c.309 0 .606-.123.825-.342s.342-.516.342-.825v-2.333c0-.309-.123-.606-.342-.825S24.81 14 24.5 14zm-14-8.167c.644 0 1.167-.522 1.167-1.167S11.144 3.5 10.5 3.5s-1.167.522-1.167 1.167.522 1.167 1.167 1.167zm7 0c.644 0 1.167-.522 1.167-1.167S18.144 3.5 17.5 3.5s-1.167.522-1.167 1.167.522 1.167 1.167 1.167z"/><path d="M18.667 9.333H9.333c-.928-.001-1.818-.37-2.474-1.026S5.834 6.761 5.833 5.833V3.5c.001-.928.37-1.818 1.026-2.474S8.405.001 9.333 0h9.333c.928.001 1.818.37 2.474 1.026s1.025 1.546 1.026 2.474v2.333c-.001.928-.37 1.818-1.026 2.474s-1.546 1.025-2.474 1.026zm-9.333-7A1.17 1.17 0 0 0 8.167 3.5v2.333A1.17 1.17 0 0 0 9.333 7h9.333a1.17 1.17 0 0 0 1.167-1.167V3.5a1.17 1.17 0 0 0-1.167-1.167H9.333z"/></svg>