<svg xmlns="http://www.w3.org/2000/svg" width="28" height="28" fill="none" xmlns:v="https://vecta.io/nano"><g clip-path="url(#A)" fill="#fff"><path d="M24.5 11.667A19.65 19.65 0 0 0 14 15.452a19.65 19.65 0 0 0-10.5-3.785v3.453a2.34 2.34 0 0 0-2.333 2.342v1.171c0 1.294 2.333 2.576 2.333 2.576v2.342c3.099.199 6.087 1.227 8.653 2.975A17.58 17.58 0 0 1 14 28.001a17.58 17.58 0 0 1 1.847-1.475c2.566-1.748 5.554-2.776 8.653-2.975v-2.576a2.34 2.34 0 0 0 2.333-2.341v-1.171A2.34 2.34 0 0 0 24.5 15.12v-3.453zM14 24.992a19.65 19.65 0 0 0-8.167-3.495v-7.175a17.27 17.27 0 0 1 6.32 2.662A17.58 17.58 0 0 1 14 18.459a17.58 17.58 0 0 1 1.847-1.475c1.907-1.302 4.056-2.207 6.32-2.664v7.176A19.65 19.65 0 0 0 14 24.992zM12.833 9.333h2.333V10.5h-2.333V9.333zm0-4.667h2.333v1.167h-2.333V4.667zm0 7.001h2.333v1.167h-2.333v-1.167zM10.5 5.833c.309 0 .606-.123.825-.342s.342-.516.342-.825a1.15 1.15 0 0 0-.086-.443 1.16 1.16 0 0 0-.25-.376 1.12 1.12 0 0 0-.376-.25 1.16 1.16 0 0 0-.443-.086 1.16 1.16 0 0 0-.831 1.978 1.16 1.16 0 0 0 .819.344zm7 0c.644 0 1.167-.522 1.167-1.167S18.144 3.5 17.5 3.5s-1.167.522-1.167 1.167.522 1.167 1.167 1.167z"/><path d="M18.667 9.333H9.333c-.928-.001-1.818-.37-2.474-1.026S5.834 6.761 5.833 5.833V3.5c.001-.928.37-1.818 1.026-2.474S8.405.001 9.333 0h9.333c.928.001 1.818.37 2.474 1.026s1.025 1.546 1.026 2.474v2.333c-.001.928-.37 1.818-1.026 2.474s-1.546 1.025-2.474 1.026zm-9.333-7A1.17 1.17 0 0 0 8.167 3.5v2.333A1.17 1.17 0 0 0 9.333 7h9.333a1.17 1.17 0 0 0 1.167-1.167V3.5a1.17 1.17 0 0 0-1.167-1.167H9.333z"/></g><defs><clipPath id="A"><path fill="#fff" d="M0 0h28v28H0z"/></clipPath></defs></svg>