<svg xmlns="http://www.w3.org/2000/svg" width="28" height="28" fill="none" xmlns:v="https://vecta.io/nano"><path d="M5.746 22.254a12.18 12.18 0 0 1-2.493-3.719c-.612-1.41-.919-2.922-.919-4.535 0-1.633.306-3.155.919-4.565a11.83 11.83 0 0 1 2.493-3.689l1.662 1.663c-.856.856-1.526 1.847-2.012 2.975S4.667 12.717 4.667 14c0 1.303.243 2.518.729 3.646s1.157 2.11 2.012 2.946l-1.662 1.663zm3.296-3.296c-.622-.642-1.118-1.386-1.487-2.232S7 14.972 7 14c0-.992.185-1.911.554-2.757a7.08 7.08 0 0 1 1.487-2.202l1.662 1.663a4.74 4.74 0 0 0-1.007 1.488A4.5 4.5 0 0 0 9.333 14c0 .642.122 1.245.365 1.808a4.75 4.75 0 0 0 1.006 1.488l-1.662 1.663zm9.917 0l-1.663-1.663a4.74 4.74 0 0 0 1.007-1.488c.243-.564.365-1.167.364-1.808s-.122-1.244-.365-1.808a4.75 4.75 0 0 0-1.006-1.488l1.663-1.663c.622.622 1.118 1.356 1.488 2.203S21 13.009 21 14c0 .972-.185 1.882-.554 2.728a7.45 7.45 0 0 1-1.488 2.231zm3.296 3.296l-1.663-1.663c.856-.856 1.526-1.847 2.012-2.975s.729-2.333.729-3.617c0-1.303-.243-2.518-.729-3.646a9.12 9.12 0 0 0-2.012-2.946l1.663-1.663c1.05 1.05 1.881 2.28 2.494 3.689s.919 2.931.918 4.565c0 1.614-.306 3.126-.919 4.536s-1.444 2.649-2.493 3.718z" fill="#fff"/><circle cx="14.25" cy="14.25" r="1.75" stroke="#fff"/></svg>