<svg xmlns="http://www.w3.org/2000/svg" width="28" height="28" fill="none" xmlns:v="https://vecta.io/nano"><path d="M4.667 5.833c0-.309.123-.606.342-.825s.516-.342.825-.342h16.333c.309 0 .606.123.825.342s.342.516.342.825v2.333c0 .309-.123.606-.342.825s-.515.342-.825.342H5.833c-.309 0-.606-.123-.825-.342s-.342-.516-.342-.825V5.833zm0 9.333c0-.309.123-.606.342-.825S5.524 14 5.833 14h7c.309 0 .606.123.825.342s.342.516.342.825v7c0 .309-.123.606-.342.825s-.516.342-.825.342h-7c-.309 0-.606-.123-.825-.342s-.342-.516-.342-.825v-7zm14 0c0-.309.123-.606.342-.825s.515-.342.825-.342h2.333c.309 0 .606.123.825.342s.342.516.342.825v7c0 .309-.123.606-.342.825s-.515.342-.825.342h-2.333c-.309 0-.606-.123-.825-.342s-.342-.516-.342-.825v-7z" stroke="#fff" stroke-width="2" stroke-linejoin="round"/></svg>