<svg xmlns="http://www.w3.org/2000/svg" width="28" height="28" fill="none" xmlns:v="https://vecta.io/nano"><path d="M22.167 3.5H5.833A2.34 2.34 0 0 0 3.5 5.833v16.333A2.34 2.34 0 0 0 5.833 24.5h16.333a2.34 2.34 0 0 0 2.333-2.333V5.833A2.34 2.34 0 0 0 22.167 3.5zM8.633 21c-1.75-1.75-2.8-4.317-2.8-7s1.05-5.25 2.8-7l1.867.817C8.983 9.217 8.167 11.55 8.167 14s.817 4.783 2.333 6.183L8.633 21zm6.183-3.5l-.933-2.333L12.25 17.5H10.5l2.683-3.617-1.517-3.383h1.517l.933 2.333L15.75 10.5h1.75L14.933 14l1.517 3.5h-1.633zm4.55 3.5l-1.867-.817c1.517-1.517 2.333-3.733 2.333-6.183s-.817-4.783-2.333-6.183L19.367 7c1.75 1.75 2.8 4.317 2.8 7s-1.05 5.25-2.8 7z" fill="#fff"/></svg>