<svg xmlns="http://www.w3.org/2000/svg" width="28" height="28" fill="none" xmlns:v="https://vecta.io/nano"><path d="M23.812 3.5c1.622 3.162 2.263 6.813 1.855 10.5-.233 3.687-1.517 7.338-3.698 10.5l-1.785-1.167c1.878-2.835 2.975-6.067 3.15-9.333.397-3.267-.128-6.498-1.517-9.333L23.812 3.5zm-17.78 0l1.785 1.167C5.938 7.502 4.842 10.733 4.667 14c-.397 3.267.14 6.498 1.517 9.333L4.212 24.5C2.578 21.338 1.925 17.698 2.333 14c.233-3.687 1.517-7.338 3.698-10.5zm8.062 8.96L16.8 8.692h2.952l-4.41 5.833 2.567 5.74h-2.637l-1.61-3.932-2.835 3.885h-2.94l4.55-5.973-2.485-5.553H12.6l1.493 3.768z" fill="#fff"/></svg>